<?xml version="1.0" standalone="no"?>
<!DOCTYPE svg PUBLIC "-//W3C//DTD SVG 20010904//EN"
 "http://www.w3.org/TR/2001/REC-SVG-20010904/DTD/svg10.dtd">
<svg version="1.0" xmlns="http://www.w3.org/2000/svg"
 width="421.000000pt" height="421.000000pt" viewBox="0 0 421.000000 421.000000"
 preserveAspectRatio="xMidYMid meet">
<metadata>
Created by potrace 1.11, written by Peter Selinger 2001-2013
</metadata>
<g transform="translate(0.000000,421.000000) scale(0.100000,-0.100000)"
fill="#000000" stroke="none">
<path d="M2107 3734 c-5 -5 -68 -13 -147 -19 -252 -19 -357 -55 -540 -184 -36
-25 -69 -49 -75 -53 -62 -51 -109 -80 -156 -97 -92 -35 -196 -153 -224 -256
-5 -16 -9 -32 -10 -35 -1 -3 -5 -25 -9 -50 -5 -25 -10 -54 -13 -65 -12 -59 -3
-380 12 -435 3 -11 -31 -33 -119 -78 -189 -95 -228 -142 -158 -188 14 -9 31
-21 37 -26 36 -28 106 -78 111 -78 2 0 10 -5 17 -10 19 -17 121 -91 136 -99 9
-5 15 -31 17 -72 6 -96 51 -222 112 -312 32 -47 79 -75 123 -73 21 0 39 -1 39
-4 0 -3 18 -25 41 -50 45 -49 61 -83 85 -174 15 -59 20 -177 10 -226 -32 -145
-23 -267 25 -328 18 -23 18 -24 -9 -54 -15 -17 -35 -39 -45 -48 -17 -17 -16
-19 35 -61 29 -24 59 -50 66 -57 36 -34 48 -32 78 9 59 81 71 92 106 94 103 6
176 44 245 128 26 33 54 100 56 137 2 45 6 46 47 25 17 -9 32 -15 35 -14 3 1
18 -3 33 -9 36 -13 56 -20 62 -19 3 0 14 -5 26 -11 20 -11 35 -15 119 -30 22
-4 94 -7 160 -6 103 1 132 5 200 28 111 38 177 78 228 139 51 60 127 177 127
193 0 7 7 25 15 40 8 16 15 36 15 45 0 8 5 20 12 27 7 7 8 12 4 12 -4 0 3 19
17 43 42 71 63 187 60 333 l-1 101 59 7 c62 6 116 28 136 55 17 23 26 75 28
172 2 47 9 97 16 110 12 22 13 50 5 104 -2 17 -49 42 -101 54 -5 1 -19 4 -30
7 -17 4 -80 9 -156 13 -12 1 -16 14 -18 59 -1 31 -10 107 -20 167 -16 100 -17
113 -3 140 10 18 16 58 16 102 1 73 1 73 29 73 53 0 92 24 104 64 22 72 1 294
-22 234 -7 -18 -13 -45 -14 -65 -2 -32 -19 -7 -40 60 -13 39 -37 98 -53 130
-55 109 -159 247 -187 247 -6 0 -11 4 -11 8 0 10 -136 79 -170 86 -14 3 -36 8
-50 11 -14 4 -77 8 -140 10 -63 2 -126 6 -140 10 -27 7 -237 14 -243 9z m1083
-1428 c30 -6 50 -18 44 -27 -3 -5 -1 -9 5 -9 5 0 13 -19 17 -42 12 -68 12 -92
0 -107 -8 -11 -8 -13 2 -7 6 4 12 3 12 -1 0 -5 -6 -15 -12 -22 -11 -11 -10
-12 0 -6 12 6 12 3 2 -15 -9 -17 -9 -21 0 -15 8 5 11 2 7 -11 -3 -11 -8 -32
-11 -47 -5 -21 -11 -27 -23 -23 -13 5 -14 4 -4 -8 10 -12 5 -16 -34 -22 -35
-5 -49 -3 -56 7 -7 11 -9 11 -9 -2 0 -12 -8 -16 -30 -15 -26 1 -30 5 -31 31
-1 16 -2 54 -3 83 -1 35 2 51 9 48 7 -2 12 2 12 9 0 8 -5 13 -10 12 -6 -1 -11
19 -13 45 -1 33 2 46 10 41 6 -3 6 0 -1 8 -7 7 -13 34 -13 61 l0 47 58 -5 c31
-2 64 -6 72 -8z"/>
<path d="M3116 2212 c-3 -5 1 -9 9 -9 8 0 12 4 9 9 -3 4 -7 8 -9 8 -2 0 -6 -4
-9 -8z"/>
<path d="M3235 2150 c-3 -5 -1 -10 4 -10 6 0 11 5 11 10 0 6 -2 10 -4 10 -3 0
-8 -4 -11 -10z"/>
<path d="M3157 3542 c-13 -20 -36 -59 -50 -85 l-27 -48 92 -44 93 -44 22 42
c22 42 56 138 50 143 -2 2 -38 19 -80 38 l-77 36 -23 -38z"/>
<path d="M3400 2850 c0 -6 -4 -9 -9 -5 -14 8 -20 -6 -22 -58 -2 -26 -5 -47 -8
-47 -7 0 -7 -87 0 -94 2 -3 44 -8 92 -12 70 -5 87 -4 88 7 9 96 12 189 8 194
-3 2 -34 7 -69 10 -34 3 -67 8 -71 11 -5 3 -9 0 -9 -6z"/>
<path d="M738 1559 c-43 -29 -78 -55 -78 -60 0 -4 6 -14 13 -21 6 -7 25 -31
42 -53 16 -21 37 -47 47 -57 17 -17 19 -17 36 0 10 9 42 37 70 61 32 27 51 50
48 58 -7 17 -89 122 -96 122 -3 1 -40 -22 -82 -50z"/>
<path d="M3323 1095 c-29 -7 -53 -10 -53 -8 0 2 -9 -1 -20 -7 -11 -6 -19 -14
-16 -18 2 -4 7 -32 11 -62 10 -83 14 -92 38 -86 25 6 115 19 135 19 13 0 11
34 -6 131 -8 45 -16 48 -89 31z"/>
<path d="M794 907 l-75 -73 67 -59 c36 -33 69 -61 73 -63 6 -2 141 125 141
133 0 2 -29 33 -65 69 l-65 65 -76 -72z"/>
<path d="M2607 913 c-5 -8 -14 -74 -22 -150 l-4 -43 42 -1 c23 0 69 -1 102 -2
l60 -2 3 94 c2 58 -1 97 -8 101 -15 9 -168 12 -173 3z"/>
</g>
</svg>
